<svg width="168" height="32" viewBox="0 0 168 32" fill="none" xmlns="http://www.w3.org/2000/svg">
<path d="M15.8851 8.84785C16.8 7.35948 18.5881 5.62305 21.6238 5.62305C22.7465 5.62305 24.8673 5.87111 26.4059 7.44217C28.0693 9.1786 28.3604 10.2949 28.3604 14.5119C28.3604 14.5119 28.3604 24.021 28.3604 24.4758C27.9446 24.4758 23.6614 24.4758 23.2455 24.4758C23.2455 24.021 23.2455 14.8013 23.2455 14.8013C23.2455 13.2716 23.2455 10.4189 20.1267 10.4189C16.7584 10.4189 16.7584 13.5197 16.7584 14.5533C16.7584 14.5533 16.7584 24.0623 16.7584 24.5171C16.3426 24.5171 12.0594 24.5171 11.6436 24.5171C11.6436 24.0623 11.6436 14.5946 11.6436 14.5946C11.6436 13.561 11.6436 10.4603 8.56634 10.4603C5.11485 10.4603 5.11485 13.7677 5.11485 14.8427C5.11485 14.8427 5.11485 24.0623 5.11485 24.5171C4.69901 24.5171 0.415842 24.5171 0 24.5171C0 24.0623 0 6.78067 0 6.32589C0.415842 6.32589 4.11683 6.32589 4.57426 6.32589C4.57426 6.69798 4.74059 8.55845 4.74059 8.55845C5.44752 6.69798 7.90099 5.66439 10.2713 5.66439C11.8515 5.66439 14.0554 6.20186 15.4693 8.8892L15.6772 9.26129L15.8851 8.84785Z" fill="black"/>
<path d="M72.7305 0.0413437C72.7305 0.496124 72.7305 24.0207 72.7305 24.4755C72.3146 24.4755 68.5305 24.5168 68.0731 24.5168C68.0731 24.1447 67.8236 22.0775 67.8236 22.0775C66.7424 24.4341 63.6651 25.0543 61.9186 25.0543C56.5127 25.0543 52.7285 21.0439 52.7285 15.2972C52.7285 8.93023 57.3028 5.5814 61.7939 5.5814C64.9958 5.5814 66.5345 7.11111 67.1166 7.73127L67.5325 8.1447V7.56589C67.5325 7.56589 67.5325 0.45478 67.5325 0C68.0315 0.0413437 72.3146 0.0413437 72.7305 0.0413437ZM57.8849 15.2972C57.8849 18.2326 59.9642 20.3411 62.8335 20.3411C66.5345 20.3411 67.9067 17.323 67.9067 15.2972C67.9067 12.8992 66.1602 10.3773 62.9166 10.3773C59.6731 10.3773 57.8849 12.8992 57.8849 15.2972Z" fill="black"/>
<path d="M102.38 0.0410156C102.38 0.495796 102.38 24.0203 102.38 24.4751C101.965 24.4751 97.6815 24.4751 97.2656 24.4751C97.2656 24.0203 97.2656 0.495796 97.2656 0.0410156C97.6815 0.0410156 101.923 0.0410156 102.38 0.0410156Z" fill="black"/>
<path d="M105.416 15.3798C105.416 9.05424 110.157 5.66406 114.606 5.66406C117.392 5.66406 119.846 7.27647 120.386 8.59946V8.26871C120.386 8.26871 120.469 6.65631 120.469 6.28422C120.885 6.28422 125.085 6.28422 125.501 6.28422C125.501 6.739 125.501 24.0206 125.501 24.4754C125.085 24.4754 120.885 24.4754 120.469 24.4754C120.469 24.1033 120.303 22.0775 120.303 22.0775C119.305 24.2274 116.394 25.1369 114.565 25.1369C108.285 25.1369 105.416 20.0517 105.416 15.3798ZM110.531 15.4212C110.531 17.4884 112.069 20.3824 115.438 20.3824C119.056 20.3824 120.386 17.3643 120.386 15.3385C120.386 12.8579 118.681 10.3359 115.396 10.3359C112.277 10.3772 110.531 12.9819 110.531 15.4212Z" fill="black"/>
<path d="M45.3268 18.4396C44.5367 19.7212 43.0812 21.0029 41.2515 21.0029C38.7981 21.0029 36.8852 19.3491 36.5525 17.1166L36.5109 16.8272C36.5109 16.8272 50.0674 16.8685 50.4832 16.8685C50.5248 16.5378 50.5664 16.2484 50.5664 15.6282C50.5664 9.96413 46.6159 5.62305 41.0852 5.62305C35.7624 5.62305 31.3545 10.0055 31.3545 15.3802C31.3545 20.7135 35.804 25.0546 41.1684 25.0546C43.0812 25.0546 44.8693 24.4758 46.3664 23.4008C47.6139 22.574 48.6951 21.3336 49.4852 19.8866L45.3268 18.4396ZM36.6357 13.2716C36.9268 12.0313 38.1327 9.75741 41.1268 9.75741C44.1208 9.75741 45.4099 11.99 45.6594 13.2716L45.7426 13.561H36.5941L36.6357 13.2716Z" fill="black"/>
<path d="M89.2809 18.4396C88.4908 19.7212 87.0353 21.0029 85.2056 21.0029C82.7521 21.0029 80.8393 19.3491 80.5066 17.1166L80.465 16.8272C80.465 16.8272 94.0215 16.8685 94.4373 16.8685C94.4789 16.5378 94.5205 16.2484 94.5205 15.6282C94.5205 9.96413 90.57 5.62305 85.0393 5.62305C79.7165 5.62305 75.3086 10.0055 75.3086 15.3802C75.3086 20.7135 79.7581 25.0546 85.1224 25.0546C87.0353 25.0546 88.8234 24.4758 90.3205 23.4008C91.568 22.574 92.6492 21.3336 93.4393 19.8866L89.2809 18.4396C89.3224 18.4396 89.2809 18.4396 89.2809 18.4396ZM80.5898 13.2716C80.8393 12.0313 82.0868 9.75741 85.0809 9.75741C88.0749 9.75741 89.364 11.99 89.6135 13.2716L89.6967 13.561H80.5482L80.5898 13.2716Z" fill="black"/>
<path d="M168 3.92804C164.258 8.4345 155.151 14.0159 149.412 11.4526C148.123 10.8738 146.792 9.26137 146.584 7.52494C146.418 5.91253 147.25 4.13476 148.747 3.18385C152.697 0.661888 160.266 7.07016 168 3.92804Z" fill="#FF8200"/>
<path d="M134.774 10.0879C140.638 9.38503 151.075 11.7003 153.446 17.4884C153.986 18.8114 153.82 20.8786 152.739 22.2843C151.741 23.5659 149.911 24.2687 148.164 23.938C143.507 23.0284 142.509 13.1473 134.774 10.0879Z" fill="#FF8200"/>
<path d="M156.274 32.0001C154.194 26.5013 153.903 15.876 159.018 12.2378C160.182 11.4109 162.22 11.0388 163.842 11.783C165.339 12.4445 166.462 14.0156 166.545 15.7933C166.794 20.4652 157.396 23.7727 156.274 32.0001Z" fill="#FF8200"/>
</svg>
