<svg viewBox="0 0 86 14" xmlns="http://www.w3.org/2000/svg" xmlns:xlink="http://www.w3.org/1999/xlink"><defs><path id="a" d="M0.0152727273 0.214581818L84.7585455 0.214581818 84.7585455 13.9847273 0.0152727273 13.9847273z"/></defs><g transform="translate(0.000000, 0.000000)" fill="none" fill-rule="evenodd"><mask id="b" fill="#fff"><use xlink:href="#a"/></mask><path d="M11.7701818,0.214581818 C7.52003636,0.214581818 4.48152727,2.56174545 2.94483636,6.22185455 L0,13.4097091 L2.24229091,13.4097091 C2.7804,13.4097091 4.27127273,13.1724727 4.91654545,11.6156727 C4.91654545,11.6156727 6.37203636,8.12763636 6.61792727,7.54090909 C7.28941818,5.93905455 8.60261818,3.96072727 11.7701818,3.96072727 C14.9369818,3.96072727 16.2509455,5.93905455 16.9211636,7.54090909 C17.1662909,8.12763636 18.6230545,11.6156727 18.6230545,11.6156727 C19.2678182,13.1724727 20.7586909,13.4097091 21.2983273,13.4097091 L23.5383273,13.4097091 L20.5947636,6.22185455 C19.0588364,2.56174545 16.0195636,0.214581818 11.7701818,0.214581818 L11.7701818,0.214581818 Z M43.8719273,0.793163636 L41.6283636,0.793163636 C41.0894909,0.793163636 39.5965818,1.0304 38.9505455,2.58669091 C38.9505455,2.58669091 37.4935273,6.076 37.2468727,6.6612 C36.5753818,8.26458182 35.2606545,10.2413818 32.0887636,10.2413818 C28.9176364,10.2413818 27.6013818,8.26458182 26.9298909,6.6612 C26.6827273,6.076 25.2257091,2.58669091 25.2257091,2.58669091 C24.5796727,1.0304 23.0880364,0.793163636 22.5484,0.793163636 L20.3045818,0.793163636 L23.2527273,7.98025455 C24.7891636,11.6408727 27.8335273,13.9882909 32.0887636,13.9882909 C36.3432364,13.9882909 39.3876,11.6408727 40.9258182,7.98025455 L43.8719273,0.793163636 Z M52.3803636,0.214581818 C48.1302182,0.214581818 45.0912,2.56174545 43.5550182,6.22185455 L40.6109455,13.4097091 L42.8527273,13.4097091 C43.3905818,13.4097091 44.8814545,13.1724727 45.5254545,11.6156727 C45.5254545,11.6156727 46.9822182,8.12763636 47.2281091,7.54090909 C47.8998545,5.93905455 49.2130545,3.96072727 52.3803636,3.96072727 C55.5474182,3.96072727 56.8613818,5.93905455 57.5316,7.54090909 C57.7764727,8.12763636 59.2319636,11.6156727 59.2319636,11.6156727 C59.8787636,13.1724727 61.3683636,13.4097091 61.9062182,13.4097091 L64.1487636,13.4097091 L61.2041818,6.22185455 C59.6692727,2.56174545 56.6287273,0.214581818 52.3803636,0.214581818 L52.3803636,0.214581818 Z M83.1330182,3.62065455 C84.0282545,3.62065455 84.7585455,2.89112727 84.7585455,1.99563636 C84.7585455,1.09836364 84.0282545,0.369090909 83.1330182,0.369090909 C82.2365091,0.369090909 81.5085091,1.09836364 81.5085091,1.99563636 C81.5085091,2.89112727 82.2365091,3.62065455 83.1330182,3.62065455 L83.1330182,3.62065455 Z M83.1330182,0.735127273 C83.8281818,0.735127273 84.3948,1.29996364 84.3948,1.99563636 C84.3948,2.69029091 83.8281818,3.25436364 83.1330182,3.25436364 C82.4381091,3.25436364 81.8725091,2.69029091 81.8725091,1.99563636 C81.8725091,1.29996364 82.4381091,0.735127273 83.1330182,0.735127273 L83.1330182,0.735127273 Z M72.2341455,0.214581818 C67.5207273,0.214581818 63.4380727,2.88374545 63.4380727,7.04785455 C63.4380727,10.7316364 67.2262182,14 72.3336727,14 C73.7410545,14 75.2240364,13.7889818 78.0146182,12.9034182 C77.6648727,12.2589091 76.6469455,10.0601455 74.8259273,10.0601455 C73.8339636,10.0601455 73.7985818,10.3068 72.2341455,10.3068 C70.0784,10.3068 67.3743636,9.15447273 67.3743636,7.04912727 C67.3743636,5.30370909 69.2552,3.83396364 72.2214182,3.83396364 C76.0956,3.83396364 77.3444,6.74469091 77.8433091,7.93545455 C78.1116,8.57563636 78.7398182,10.0331636 79.3749091,11.5612 C80.0008364,13.0658182 81.2155273,13.5367273 82.1685455,13.5367273 L84.4655636,13.5367273 C84.4655636,13.5367273 83.1228364,10.2123636 81.6352727,6.67290909 C80.2872,3.46767273 77.7412364,0.214581818 72.2341455,0.214581818 L72.2341455,0.214581818 Z M82.8303636,2.24636364 L83.1974182,2.24636364 L83.5245091,2.90563636 L83.9457818,2.90563636 L83.5962909,2.19418182 C83.8281818,2.1028 83.9457818,1.93021818 83.9457818,1.65454545 C83.9457818,1.26534545 83.6606909,1.07392727 83.3150182,1.07392727 L82.4628,1.07392727 L82.4628,2.90563636 L82.8303636,2.90563636 L82.8303636,2.24636364 Z M82.8303636,1.43130909 L83.3068727,1.43130909 C83.4692727,1.43130909 83.5700727,1.49876364 83.5700727,1.66269091 C83.5700727,1.82305455 83.4771636,1.9012 83.3068727,1.9012 L82.8303636,1.9012 L82.8303636,1.43130909 L82.8303636,1.43130909 Z" fill="#051D49" mask="url(#b)"/></g></svg>
