<svg width="99" height="45" viewBox="0 0 99 50" fill="none" xmlns="http://www.w3.org/2000/svg">
<path d="M66.7455 0.000383377C64.2428 0.0363636 61.7296 2.25115 60.1608 4.98033C59.4369 6.24897 58.9188 7.62155 58.693 8.93684C56.3086 7.43099 53.7289 6.5035 52.0406 6.5035C47.4365 6.5035 46.6475 10.0522 46.6475 12.0005C46.6475 19.2059 59.9908 27.2002 64.0662 27.2002C67.3512 27.1536 73.4975 16.9591 73.3713 8.47042C73.3221 4.98966 71.4266 -0.0729103 66.7455 0.000383377ZM63.1137 16.8259C63.1137 17.0831 63.0234 17.2776 62.7963 17.2776C60.9273 17.2776 60.7293 13.553 60.7293 13.553C62.1985 14.3765 63.1137 15.5212 63.1137 16.8259ZM62.6555 24.5643C59.7464 24.5643 51.4229 17.0644 51.4229 12.8161C51.4229 10.7905 52.7871 10.2108 53.9229 10.2108C55.2127 10.2108 58.2573 12.0005 58.2573 12.0005C58.2573 12.0005 58.7116 20.0321 61.792 20.0321C62.8853 20.0321 64.9376 18.2091 64.9376 16.7432C64.9376 14.3312 63.0858 12.4309 60.9538 10.5999C61.0548 9.67377 61.6592 8.02 62.6475 6.7527C63.5441 5.60399 64.7928 4.69249 66.3496 4.66983C67.8812 4.64318 68.9014 6.30627 68.9373 8.96216C69.0302 15.352 65.2936 24.523 62.6555 24.5643Z" fill="#FFD406"/>
<path d="M63.7142 37.0173C63.7142 27.5878 68.9506 26.8242 70.1753 26.8242C74.1059 26.8242 75.8687 30.6875 75.8687 33.3527C75.8687 34.476 75.5818 35.0144 73.8535 35.7247L68.0061 37.8049C68.0061 39.6825 68.7142 39.9371 69.5856 39.9371C71.5914 39.9371 73.5334 37.3598 74.6559 37.3598C75.2589 37.3598 75.8726 38.3633 75.8726 38.9883C75.8726 41.1178 72.4163 43.7683 68.9506 43.7683C65.9804 43.7683 63.7142 41.247 63.7142 37.0173ZM70.0092 30.4542C68.1894 30.7114 67.9144 33.4966 67.9078 34.3068L71.9912 32.9022C71.9573 32.2879 71.5767 30.4542 70.0092 30.4542Z" fill="#00A3A3"/>
<path d="M98.0659 40.671C98.0659 35.9736 91.7762 33.9747 91.7762 31.572C91.7762 31.015 92.1256 30.3567 93.0076 30.3567C95.121 30.3567 94.5418 32.9472 96.1717 32.9472C97.0471 32.9472 98.5561 32.4982 98.5561 31.5653C98.5561 28.511 95.3401 26.6094 92.8907 26.6094C90.8184 26.6094 87.831 27.6088 87.7034 31.2335C87.5216 36.6332 93.7528 38.247 93.7528 40.3899C93.7528 41.4319 92.9079 41.6079 92.1043 41.6079C89.6163 41.6079 88.4766 38.816 87.3169 38.816C86.5411 38.816 85.6552 40.034 85.6552 41.2534C85.6552 43.0217 88.802 45.5071 92.3792 45.5071C95.3521 45.5071 98.0659 43.7507 98.0659 40.671Z" fill="#00A3A3"/>
<path d="M31.4138 43.8179C31.4138 44.4709 31.1137 44.7681 30.2223 44.7481C27.8272 44.6828 26.7539 42.8078 26.7539 40.721V29.4831C26.7539 27.7227 28.5326 26.8845 29.6139 26.8672C30.5716 26.8659 30.8533 27.5108 30.8533 28.7622V29.663C31.997 28.1625 33.7371 27.6708 34.8104 27.6708C37.2546 27.6708 38.66 29.038 39.0279 29.9042C40.424 28.0732 41.8055 27.6708 43.1843 27.6708C48.1551 27.6708 48.2839 32.3202 48.2839 33.5542V43.2289C48.2839 44.0072 47.8389 44.1484 46.7443 44.1484C44.2258 44.1484 43.6267 42.5626 43.6267 40.2719L43.6229 34.1432C43.6229 33.0478 43.3029 32.0257 42.09 32.0257C40.9077 32.0257 39.7946 32.5721 39.7946 34.2831V42.2268C39.7946 43.129 38.9989 43.4648 38.2922 43.4648C35.6408 43.4648 35.2742 41.3993 35.2742 40.096V34.2298C35.2742 32.7506 34.7787 32.0257 33.5779 32.0257C32.2841 32.0257 31.3941 33.0158 31.3941 34.4444C31.3941 34.8242 31.4138 43.5434 31.4138 43.8179Z" fill="#00A3A3"/>
<path d="M19.6878 26.8281C17.1666 26.8281 16.8823 28.1194 16.8451 28.7684C16.8067 29.424 17.2609 30.5781 18.0818 30.5234C18.1948 30.5182 18.5335 30.5087 18.5826 30.5087C19.7822 30.5046 21.0773 30.7779 21.064 32.0252C21.064 32.2344 21.0452 32.7102 21.0452 32.7102C21.0452 32.7102 11.5103 32.5049 11.5103 39.0587C11.5103 41.5374 13.3221 44.2186 16.279 44.2186C18.2609 44.2186 20.2069 42.814 20.9814 40.9204C20.8658 41.1949 20.8259 41.7506 20.8259 41.9798C20.8259 43.9774 22.1649 44.3465 24.1042 44.3465C24.8628 44.3465 25.0155 43.9134 25.0155 43.0459V32.6743C24.8679 27.745 21.9102 26.8281 19.6878 26.8281ZM17.3217 40.6619C16.3559 40.6619 16.0438 39.845 16.0438 38.9868C16.0438 36.3256 19.459 35.7219 20.9082 35.7219L21.0185 35.7233C21.0185 39.6638 18.569 40.6619 17.3217 40.6619Z" fill="#00A3A3"/>
<path d="M55.7131 26.5117C52.2009 26.5291 49.8936 28.3041 49.8936 34.0743V47.403C49.8936 49.0141 50.2894 50.0002 52.2461 50.0002C53.3406 50.0002 53.7923 49.871 53.7923 49.1767V43.2972C55.1352 43.0813 62.5834 42.0379 62.5834 32.9402C62.5834 30.7308 61.2709 26.5117 55.7131 26.5117ZM53.8096 34.0103C53.8096 31.9248 54.2413 30.7414 55.9974 30.5935C57.4107 30.4829 58.7099 31.493 58.7099 33.1854C58.7099 36.8861 57.0986 39.2581 53.8096 39.4793V34.0103Z" fill="#00A3A3"/>
<path d="M0 25.6732C0 31.8579 1.04544 40.4025 1.46253 42.8678C1.83979 45.0946 2.25554 46.3126 4.74222 46.3126C6.13433 46.3126 6.71617 46.1527 6.71617 45.2679L5.42899 34.9641C7.13461 34.6843 16.6257 33.4103 16.6257 22.5016C16.6257 19.2767 14.8789 14.4434 9.01422 14.4434C4.37828 14.4434 0 17.3245 0 25.6732ZM8.67816 19.0102C10.2456 19.0102 12.088 20.063 12.088 23.3558C12.088 27.0725 9.79398 29.7017 5.06903 30.6985C4.85666 29.054 4.75532 27.4722 4.75532 26.065C4.75532 21.2916 6.17951 19.0102 8.67816 19.0102Z" fill="#00A3A3"/>
<path d="M81.6319 29.4571C81.6319 28.6269 81.6206 28.1139 81.6206 28.1139C81.6206 27.3676 81.1318 26.9905 80.2989 26.9972C79.1459 27.0157 77.5532 27.7701 77.5532 29.4798V41.1627C77.5532 43.5015 78.3675 44.3663 80.8396 44.3663C80.8396 44.3663 82.0776 44.2517 82.0776 43.5614C82.0776 42.8685 82.0587 34.2305 82.0587 34.1999C82.0587 32.6301 84.4298 31.5187 86.0637 30.9377C86.6044 30.7524 86.8143 30.2247 86.8143 29.7716C86.8143 28.7029 86.5394 27.2677 85.3371 27.2677C84.653 27.2677 83.4279 27.5688 81.6319 29.4571Z" fill="#00A3A3"/>
</svg>
