<?xml version="1.0" encoding="UTF-8"?>
<svg width="243px" height="137px" viewBox="0 0 243 137" version="1.1" xmlns="http://www.w3.org/2000/svg" xmlns:xlink="http://www.w3.org/1999/xlink">
    <g id="Page-1" stroke="none" stroke-width="1" fill="none" fill-rule="evenodd">
        <g id="Chicco_logo" transform="translate(1.000000, 1.000000)">
            <path d="M235.491,109.369 C233.964,111.209 232.006,113.029 229.533,114.652 C222.916,118.997 213.483,122.495 202.224,125.226 C179.781,130.67 149.479,133.779 120.494,133.779 C91.51,133.779 61.205,130.671 38.762,125.226 C27.496,122.495 18.067,118.997 11.449,114.652 C8.99,113.037 7.038,111.225 5.517,109.396 C2.771,106.103 1.095,101.824 1.095,97.18 L1.101,37.762 C1.101,33.596 2.465,29.69 4.748,26.545 C6.369,24.39 8.6,22.226 11.448,20.349 C18.066,16 27.496,12.504 38.761,9.769 C61.204,4.329 91.509,1.216 120.493,1.216 C149.478,1.216 179.78,4.328 202.223,9.769 C213.482,12.504 222.914,16 229.532,20.349 C232.358,22.201 234.61,24.356 236.242,26.529 C238.546,29.681 239.903,33.549 239.903,37.731 L239.868,97.224 C239.869,101.839 238.223,106.079 235.491,109.369" id="Path" fill="#FFFFFF" fill-rule="nonzero"></path>
            <path d="M235.03,108.988 C233.537,110.786 231.624,112.564 229.205,114.149 C222.684,118.437 213.304,121.925 202.086,124.646 C179.706,130.074 149.436,133.182 120.492,133.182 C91.554,133.182 61.276,130.074 38.9,124.646 C27.674,121.925 18.294,118.437 11.779,114.149 C9.364,112.568 7.456,110.799 5.975,109.017 C3.312,105.825 1.693,101.679 1.693,97.18 L1.693,37.759 C1.693,33.731 3.019,29.944 5.231,26.9 L4.748,26.546 L5.227,26.904 C6.804,24.8 8.985,22.683 11.779,20.845 C18.294,16.558 27.675,13.07 38.9,10.355 C61.276,4.928 91.553,1.811 120.492,1.815 C149.435,1.811 179.706,4.928 202.086,10.355 C213.304,13.07 222.684,16.558 229.205,20.845 C231.968,22.663 234.176,24.771 235.766,26.887 L236.244,26.529 L235.765,26.883 C237.995,29.938 239.307,33.681 239.307,37.732 L239.276,97.225 C239.274,101.694 237.678,105.796 235.03,108.988 L235.947,109.751 C238.767,106.357 240.466,101.978 240.466,97.225 L240.5,37.732 C240.5,33.419 239.103,29.426 236.721,26.175 L236.721,26.173 L236.719,26.171 C235.038,23.938 232.737,21.74 229.859,19.847 C223.149,15.442 213.663,11.933 202.366,9.189 C179.855,3.733 149.524,0.625 120.493,0.622 C91.463,0.624 61.127,3.732 38.619,9.188 C27.314,11.932 17.829,15.441 11.12,19.846 C8.215,21.763 5.933,23.971 4.272,26.189 L4.27,26.192 L4.268,26.194 C1.91,29.438 0.504,33.465 0.504,37.758 L0.499,97.181 C0.499,101.969 2.222,106.381 5.058,109.779 C6.613,111.651 8.613,113.501 11.122,115.15 C17.829,119.552 27.314,123.063 38.619,125.807 C61.127,131.264 91.463,134.374 120.492,134.379 C149.523,134.374 179.854,131.264 202.365,125.807 C213.662,123.063 223.148,119.552 229.858,115.15 C232.382,113.497 234.38,111.636 235.947,109.752" id="Path" stroke="#133688" stroke-width="2" fill="#1D3583" fill-rule="nonzero"></path>
            <path d="M231.00476,96.4114623 C231.00476,99.4661933 229.897328,102.262358 228.057151,104.442387 C226.935045,105.771743 225.450969,107.143392 223.506115,108.392967 C217.856451,112.038844 209.368748,115.218532 198.623136,117.775356 C177.220937,122.878429 148.05204,125.838 120.031663,125.838 C92.0161775,125.838 62.8453237,122.878429 41.4401898,117.775356 C30.6935995,115.218532 22.2117663,112.038844 16.5523194,108.392967 C14.626053,107.148198 13.1449116,105.787122 12.0228052,104.457766 C10.163063,102.274854 9.039,99.4786891 9.039,96.4124235 L9.04976126,39.256848 C9.04976126,36.4924029 9.94685942,33.937502 11.4778939,31.8660906 C12.6498935,30.3416087 14.3061499,28.7392686 16.5523194,27.2849552 C22.2117663,23.6323504 30.6935995,20.4593903 41.4401898,17.8996833 C62.8453237,12.8014159 92.0161775,9.838 120.031663,9.838 C148.05204,9.838 177.220937,12.8014159 198.623136,17.8996833 C209.367769,20.4593903 217.855472,23.6323504 223.506115,27.2849552 C225.752284,28.7373462 227.431041,30.3319966 228.596193,31.8622457 C230.149728,33.937502 231.039,36.452032 231.039,39.2260893 L231.00476,96.4114623 Z" id="Path" fill="#1D3583" fill-rule="nonzero"></path>
            <path d="M217,74.4975434 C216.98127,83.3814681 216.23602,90.7010516 215.451338,92.9915536 C215.249253,93.5929209 214.979149,94.1775836 214.65187,94.7475068 C211.395836,97.1431498 205.983899,97.942025 200.499014,98 C195.011172,97.942025 189.598249,97.1441325 186.342215,94.7475068 C186.01395,94.1775836 185.745818,93.5929209 185.540775,92.9915536 C184.762009,90.7010516 184.01873,83.3814681 184,74.4975434 C184.01873,65.6165667 184.761023,58.3009136 185.540775,56.0035333 C185.744832,55.4031486 186.012965,54.8204512 186.342215,54.2505279 C189.599235,51.8548849 195.011172,51.0560097 200.499014,51 C205.983899,51.0560097 211.396822,51.8539023 214.65187,54.2505279 C214.978163,54.8204512 215.248267,55.4031486 215.451338,56.0035333 C216.235034,58.299931 216.98127,65.6165667 217,74.4975434 L217,74.4975434 Z M198,58.1838686 L198,89.8180927 C198,91.02329 199.119234,92 200.502059,92 C201.880766,92 203,91.0242707 203,89.8180927 L203,58.1838686 C203,56.97671 201.880766,56 200.502059,56 C199.119234,56 198,56.9757293 198,58.1838686 Z" id="Shape" fill="#FFFFFF" fill-rule="nonzero"></path>
            <path d="M72.8790121,31.3451114 L72.8790121,54.2686018 C75.8614141,52.5532785 79.5930512,51.9035497 81.1729391,51.9035497 C83.5931723,51.9035497 85.6460574,52.6266665 87.334502,54.0699648 C89.0491166,55.5171771 90.090098,57.1914031 90.4574462,59.0897072 C90.8412717,60.9615917 91.0370615,64.4078944 91.039,69.4080666 L91.039,101.330889 C86.5319577,102.007037 82.7140568,102.007037 77.9879626,101.330889 L77.9879626,68.6448309 C77.9879626,65.5419843 77.9811778,64.2689463 77.9811778,63.4098169 C77.9811778,61.6573104 76.454599,60.8109015 75.4514186,60.8109015 C74.4937933,60.8109015 72.8286108,61.4890071 72.8286108,63.2503202 C72.8286108,64.3247212 72.8799814,65.4206494 72.8799814,68.1262221 L72.9206901,92.6065176 C67.4754077,93.2493969 63.6759226,93.2493969 59.0719547,92.6065176 L59.039,31.3451114 C63.8397269,30.6689629 68.4553259,30.6689629 72.8790121,31.3451114" id="Path" fill="#FFFFFF" fill-rule="nonzero"></path>
            <path d="M55.0292939,78.872743 C54.8342016,85.6421892 54.6439622,90.9408284 54.0062723,92.8262518 C53.8053563,93.4314737 53.5413507,94.012133 53.2191086,94.5859148 C50.010276,96.9753623 44.6835752,97.7780673 39.2801963,97.838 C33.8816704,97.7780673 28.5462341,96.9753623 25.3393427,94.5859148 C25.0219537,94.012133 24.7608599,93.4314737 24.5560615,92.8262518 C23.7853981,90.5380021 23.0535591,83.2232666 23.039,74.3365262 C23.0535591,65.4537159 23.7853981,58.1379979 24.5560615,55.8477832 C24.7608599,55.2445263 25.0209831,54.657972 25.3393427,54.0900852 C28.5472047,51.6976902 33.882641,50.8979327 39.2801963,50.838 C44.6835752,50.8979327 50.0112467,51.6976902 53.2191086,54.0900852 C53.5403801,54.657972 53.8053563,55.2445263 54.0062723,55.8477832 C54.6488153,57.7636642 54.8497313,62.9051029 55.039,69.8278196 L41.6407168,69.8278196 L41.6407168,58.4848215 C41.6407168,57.2832202 40.585665,56.3036647 39.2801963,56.3036647 C37.9766687,56.3036647 36.921617,57.2832202 36.921617,58.4848215 L36.921617,90.180371 C36.921617,91.3937623 37.9766687,92.3703703 39.2801963,92.3703703 C40.585665,92.3703703 41.6407168,91.3947448 41.6407168,90.180371 L41.6407168,78.872743" id="Path" fill="#FFFFFF" fill-rule="nonzero"></path>
            <path d="M145.033178,82.8774321 C144.82163,89.6480107 144.635312,94.9377094 143.996787,96.8332748 C143.797855,97.4317193 143.534876,98.0173891 143.211732,98.5873362 C140.001639,100.983079 134.684803,101.783953 129.277719,101.838 C123.877428,101.783953 118.552828,100.983079 115.341766,98.5873362 C115.026385,98.0173891 114.755642,97.4317193 114.55671,96.8332748 C113.790092,94.5377637 113.054526,87.2227875 113.039,78.336526 C113.055497,69.4541952 113.790092,62.1372536 114.55671,59.8437078 C114.755642,59.243298 115.025414,58.6586109 115.341766,58.0906292 C118.553799,55.6909553 123.877428,54.891064 129.277719,54.838 C134.684803,54.891064 140.00261,55.6899727 143.211732,58.0906292 C143.534876,58.6586109 143.797855,59.243298 143.996787,59.8437078 C144.643076,61.7628573 144.844919,66.9051559 145.039,73.8309959 L131.639679,73.8309959 L131.639679,62.4890485 C131.639679,61.2764369 130.576118,60.3045789 129.276749,60.3045789 C127.973498,60.3045789 126.920611,61.2754543 126.920611,62.4890485 L126.920611,94.1869515 C126.920611,95.3966151 127.973498,96.3753518 129.276749,96.3753518 C130.576118,96.3753518 131.639679,95.3975977 131.639679,94.1869515 L131.639679,82.8774321" id="Path" fill="#FFFFFF" fill-rule="nonzero"></path>
            <path d="M180.034147,74.2758541 C179.826456,80.9059476 179.640116,86.0886533 179.002484,87.9341928 C178.799645,88.5256503 178.540516,89.0959499 178.220245,89.6518237 C175.006852,91.9964955 169.678694,92.7783734 164.277748,92.838 C158.879713,92.7783734 153.549615,91.9974573 150.343986,89.6518237 C150.020803,89.0959499 149.756821,88.5256503 149.556894,87.9341928 C148.78436,85.6914632 148.056469,78.5324241 148.039,69.8355957 C148.05744,61.1387673 148.78533,53.9816516 149.556894,51.7369986 C149.755851,51.1474646 150.020803,50.577165 150.343986,50.0193677 C153.550586,47.6746959 158.880684,46.8918563 164.277748,46.838 C169.678694,46.8918563 175.007822,47.6737341 178.220245,50.0193677 C178.540516,50.577165 178.799645,51.1474646 179.002484,51.7369986 C179.644969,53.6161982 179.841984,58.6431055 180.039,65.4232272 L166.635142,65.4232272 L166.635142,54.3259471 C166.635142,53.1411089 165.580186,52.1832364 164.276778,52.1832364 C162.97531,52.1832364 161.916472,53.1401471 161.916472,54.3259471 L161.916472,85.3471677 C161.916472,86.5300825 162.97531,87.4898785 164.276778,87.4898785 C165.580186,87.4898785 166.635142,86.5310443 166.635142,85.3471677 L166.635142,74.2758541" id="Path" fill="#FFFFFF" fill-rule="nonzero"></path>
            <path d="M109.039,47.5065386 L109.039,92.2837018 C104.441013,93.0499462 100.220118,92.9950769 95.039,92.2837018 L95.039,47.5065386 C99.5475734,46.6151538 104.02699,46.6151538 109.039,47.5065386" id="Path" fill="#FFFFFF" fill-rule="nonzero"></path>
            <path d="M219.044,48.842 C219.567,48.842 219.955,48.89 220.206,48.999 C220.646,49.181 220.859,49.544 220.859,50.071 C220.859,50.452 220.723,50.735 220.445,50.911 C220.296,51.008 220.092,51.075 219.823,51.119 C220.16,51.173 220.411,51.313 220.562,51.538 C220.714,51.76 220.788,51.979 220.788,52.193 L220.788,52.509 L220.801,52.823 L220.845,53.045 L220.868,53.1 L220.16,53.1 L220.156,53.056 L220.143,53.007 L220.124,52.871 L220.124,52.531 C220.124,52.039 219.991,51.715 219.724,51.559 C219.567,51.465 219.292,51.421 218.888,51.421 L218.3,51.421 L218.3,53.099 L217.546,53.099 L217.546,48.84 L219.044,48.842 Z M219.848,49.515 C219.666,49.41 219.356,49.358 218.937,49.358 L218.3,49.358 L218.3,50.895 L218.979,50.895 C219.299,50.895 219.539,50.864 219.691,50.803 C219.985,50.686 220.126,50.459 220.126,50.139 C220.125,49.822 220.034,49.619 219.848,49.515 Z M221.865,53.733 C221.109,54.489 220.187,54.879 219.108,54.879 C218.04,54.879 217.118,54.489 216.375,53.733 C215.614,52.972 215.239,52.057 215.239,50.978 C215.239,49.915 215.627,49.002 216.379,48.245 C217.133,47.493 218.049,47.116 219.108,47.116 C220.187,47.116 221.109,47.493 221.865,48.245 C222.621,49.001 222.998,49.914 223.003,50.978 C223.003,52.058 222.621,52.971 221.865,53.733 Z M216.752,48.62 C216.105,49.273 215.782,50.06 215.782,50.978 C215.782,51.913 216.102,52.702 216.748,53.355 C217.399,54.015 218.186,54.34 219.108,54.34 C220.046,54.34 220.828,54.015 221.479,53.355 C222.126,52.702 222.449,51.913 222.449,50.978 C222.449,50.06 222.127,49.273 221.479,48.62 C220.822,47.968 220.039,47.638 219.108,47.638 C218.191,47.638 217.412,47.968 216.752,48.62 Z" id="Shape" fill="#FFFFFF" fill-rule="nonzero"></path>
            <rect id="Rectangle" fill="#DF0926" x="89.039" y="16.838" width="26" height="25" rx="12.5"></rect>
        </g>
    </g>
</svg>